<?xml version="1.0" encoding="UTF-8"?><svg id="Layer_1" xmlns="http://www.w3.org/2000/svg" viewBox="0 0 279.25 50.88"><path d="m130,2.87c8.13,0,11.91,4.69,11.91,14.67s-3.59,16.78-14.11,16.78c-1.39,0-2.83-.15-3.53-.3v16.18h-4.91V2.87h10.65Zm4.6,25.18c1.01-1.74,1.89-5.37,1.89-9.75,0-8.17-2.02-11.49-7.81-11.49-1.64,0-3.15.08-4.41.3v22.23c.44.23,2.46.68,4.35.68,2.27,0,4.72-.76,5.99-1.97Z" style="fill:#1b459c; stroke-width:0px;"/><path d="m151.17,46.12l12.22-.3c.13.53.19,1.29.19,1.97,0,1.74-.44,2.42-2.14,2.42h-11.4c-3.65,0-3.84-.45-3.84-3.93V9.98h17.39c.13.76.19,1.36.19,2.04,0,1.74-.63,2.19-2.27,2.19l-10.33-.15v13.61h10.58c.13.53.19,1.29.19,1.81,0,1.81-.57,2.34-2.02,2.34l-8.76-.15v14.44Z" style="fill:#1b459c; stroke-width:0px;"/><path d="m172.08,46.12l12.22-.3c.13.53.19,1.29.19,1.97,0,1.74-.44,2.42-2.14,2.42h-11.4c-3.65,0-3.84-.45-3.84-3.93V9.98h17.39c.13.76.19,1.36.19,2.04,0,1.74-.63,2.19-2.27,2.19l-10.33-.15v13.61h10.58c.13.53.19,1.29.19,1.81,0,1.81-.57,2.34-2.02,2.34l-8.76-.15v14.44Z" style="fill:#1b459c; stroke-width:0px;"/><path d="m188.08,9.98h10.33c7.06,0,10.21,4.23,10.21,11.19,0,5.14-2.65,9.6-6.49,11.34l6.99,17.16c-.95.6-2.14.76-2.96.76-1.95,0-2.71-.53-3.4-2.5l-4.66-13.91c-1.26.23-3.59.38-5.1.23v15.95h-4.91V9.98Zm13.1,18.9c1.26-1.36,2.14-4.39,2.14-7.26,0-5.75-1.83-7.94-6.87-7.94-1.07,0-2.52.08-3.46.23v16.03c.5.08,1.64.3,3.21.3,1.7,0,3.97-.45,4.98-1.36Z" style="fill:#1b459c; stroke-width:0px;"/><path d="m210.83,14.06c-.19-.68-.25-1.44-.25-2.04,0-1.44.57-2.04,1.95-2.04h13.48c.06.53.13,1.29.13,1.89,0,1.66-.57,2.19-2.52,2.12-1.01,0-1.76-.08-2.71-.08v32.66c1.64-.08,3.53-.3,5.23-.38.13.83.19,1.29.19,2.04,0,1.59-.57,1.97-2.46,1.97h-12.98c-.19-.83-.25-1.51-.25-1.89,0-1.44.63-1.97,2.65-1.89,1.01,0,1.76.08,2.77.08V13.76l-5.23.3Z" style="fill:#1b459c; stroke-width:0px;"/><path d="m244.47,46.5l-9.58-31.76v35.46h-4.66V9.98h7.75l10.33,35.99.13-.08V9.98h4.6v40.15c-1.2.45-2.65.76-3.78.76-2.71,0-3.72-.76-4.79-4.39Z" style="fill:#1b459c; stroke-width:0px;"/><path d="m271.31,9.3c3.53,0,6.43,1.44,7.94,2.8-.13,2.8-1.2,3.25-1.95,3.25-.44,0-1.2-.23-1.76-.45-1.13-.45-2.77-1.13-5.1-1.13-1.76,0-3.97.76-4.98,1.51-1.51,3.18-2.52,9.9-2.52,15.2,0,11.87,3.53,16.03,8.57,16.03.88,0,2.08-.23,2.77-.68v-14.21h-5.42c-.25-.98-.32-1.81-.32-2.34,0-1.29.76-2.04,2.21-2.04h8.44v20.49c-1.83,1.51-4.6,3.18-9.07,3.18-8.13,0-12.35-7.11-12.35-20.41s4.66-21.17,13.55-21.17Z" style="fill:#1b459c; stroke-width:0px;"/><path d="m68.16,13.85c0-.25,0-.66.02-1.24.01-.58.02-1.18.02-1.82s0-1.25.02-1.82c.01-.58.02-.97.02-1.19.25-.65.64-1.13,1.17-1.43.53-.3,1.11-.5,1.73-.61.62-.11,1.23-.15,1.83-.12.6.03,1.09.05,1.47.05.5,0,1.08.03,1.75.09.67.06,1.33.18,2,.35.67.17,1.33.42,1.98.75.66.33,1.24.75,1.75,1.26.51.51.92,1.14,1.22,1.87.3.73.46,1.6.46,2.6,0,1.19-.2,2.25-.61,3.2-.41.95-.91,1.84-1.51,2.67-.6.83-1.25,1.6-1.97,2.31-.71.72-1.37,1.42-1.97,2.1-.6.69-1.1,1.39-1.51,2.1-.41.72-.61,1.5-.61,2.34,0,.06.02.15.05.26.03.11.05.18.05.21,2.67,1.09,5.26,2.42,7.78,3.97,2.52,1.56,5,3.24,7.44,5.05.07.06.14.18.22.35.08.17.15.37.22.61.07.23.14.44.2.63.07.19.1.34.1.47,0,.28-.06.49-.17.63-.11.14-.25.25-.41.33-.16.08-.32.12-.47.12h-.41c-1.22,0-2.44-.37-3.64-1.1-1.21-.73-2.42-1.55-3.64-2.45-1.22-.9-2.46-1.73-3.71-2.48-1.25-.75-2.56-1.12-3.92-1.12h-1.08c.36,1.15.68,2.18.97,3.09.28.9.52,1.78.71,2.62.19.84.34,1.69.44,2.55.1.86.15,1.78.15,2.78v.77c0,.3-.01.6-.03.91-.02.31-.09.59-.2.84-.11.25-.29.42-.54.51-.93-.75-1.76-1.91-2.49-3.48-.73-1.57-1.37-3.37-1.92-5.4-.54-2.03-1-4.18-1.37-6.45-.37-2.28-.68-4.51-.92-6.71s-.41-4.25-.51-6.17-.15-3.51-.15-4.79Zm2.92,2.95c0,.41-.02.93-.05,1.57-.03.64-.04,1.29-.02,1.96.02.67.1,1.31.22,1.92s.33,1.13.63,1.57c.04.03.09.05.13.05.02.03.08.05.17.05.41,0,.9-.17,1.47-.51.58-.34,1.18-.79,1.81-1.36.63-.56,1.26-1.21,1.88-1.94.62-.73,1.18-1.49,1.68-2.27.5-.78.9-1.57,1.2-2.36.31-.79.46-1.52.46-2.17s-.17-1.16-.51-1.61c-.34-.45-.75-.82-1.22-1.1-.47-.28-.97-.48-1.47-.61-.51-.12-.92-.19-1.24-.19-.38,0-.84,0-1.36-.02-.52-.02-1.03.03-1.54.14-.51.11-.97.3-1.37.58-.41.28-.69.7-.85,1.26v2.5c0,.55,0,1.05-.02,1.52-.01.47-.02.81-.02,1.03Z" style="fill:#1b459c; stroke-width:0px;"/><path d="m91.9,9.78c-.11,0-.28-.04-.49-.12-.21-.08-.44-.17-.66-.28-.23-.11-.44-.22-.64-.33-.2-.11-.34-.19-.41-.26-.02-.06-.03-.12-.03-.19-.02-.06-.03-.14-.03-.23,0-.44.12-.81.37-1.12.25-.31.54-.57.86-.77.33-.2.65-.36.97-.47.32-.11.56-.18.75-.21h.75c.54.06,1.23.16,2.07.28.83.12,1.72.26,2.66.4.94.14,1.89.28,2.85.42s1.83.28,2.61.42c.78.14,1.44.25,1.97.33.53.08.84.12.93.12.18.03.41.09.7.16.28.08.57.2.86.37.29.17.56.37.81.61s.43.52.54.86c-.18.5-.34.88-.47,1.15-.14.27-.28.47-.44.61-.16.14-.32.21-.49.21h-.63c-.95,0-1.9-.05-2.86-.14-.96-.09-1.92-.19-2.87-.28-.95-.09-1.9-.19-2.86-.28-.96-.09-1.93-.14-2.9-.14,0,.56-.05,1.4-.15,2.52-.1,1.12-.18,2.31-.24,3.55-.06,1.25-.03,2.49.07,3.72.1,1.23.36,2.27.76,3.11.79-.65,1.62-1,2.47-1.03.86-.03,1.73-.05,2.61-.05h1.46c.59,0,1.16.09,1.71.28s1.02.5,1.41.94c.38.44.58,1.09.58,1.96,0,.62-.09,1.09-.27,1.4-.18.31-.6.47-1.25.47-.07,0-.21-.05-.42-.14-.22-.09-.44-.2-.68-.33-.24-.12-.46-.23-.66-.33-.2-.09-.34-.14-.41-.14-.02,0-.11,0-.25-.02-.15-.02-.32-.02-.53-.02s-.4,0-.59-.02c-.19-.02-.34-.02-.46-.02-.52,0-1.02.05-1.51.14-.49.09-.91.28-1.27.56-.36.28-.65.69-.86,1.22-.21.53-.32,1.22-.32,2.06,0,.28.02.76.07,1.45.05.69.11,1.44.19,2.27.08.83.19,1.68.32,2.55.14.87.32,1.68.54,2.41.23.73.48,1.34.76,1.82.28.48.63.72,1.03.72.04,0,.16-.02.34-.05.18-.03.29-.05.34-.05.77-.72,1.54-1.5,2.32-2.34.78-.84,1.59-1.63,2.42-2.36.84-.73,1.71-1.36,2.61-1.87.9-.51,1.84-.77,2.81-.77v2.29c0,.12-.22.47-.66,1.03-.44.56-1.02,1.22-1.73,1.96s-1.51,1.54-2.39,2.38-1.76,1.61-2.64,2.31c-.88.7-1.72,1.29-2.53,1.75-.8.47-1.47.7-2.02.7-.77,0-1.45-.48-2.05-1.43-.6-.95-1.14-2.21-1.61-3.79-.47-1.57-.87-3.39-1.19-5.45-.32-2.06-.59-4.18-.83-6.36-.24-2.18-.43-4.36-.58-6.52-.15-2.17-.27-4.17-.36-6.01-.09-1.84-.15-3.44-.19-4.79s-.06-2.3-.08-2.83Z" style="fill:#1b459c; stroke-width:0px;"/><path d="m1.85,18.09c.07-.53.2-1.4.37-2.61s.36-2.49.54-3.84c.18-1.35.36-2.61.53-3.8.17-1.19.29-2.03.36-2.51.07-.3.21-.77.41-1.39.2-.62.42-1.23.67-1.83.24-.6.53-1.11.87-1.53C5.94.14,6.31-.05,6.72,0c.96.13,1.8.65,2.54,1.55.74.91,1.41,2.07,2.02,3.47.61,1.41,1.16,2.95,1.66,4.64s.99,3.36,1.48,5.02c.49,1.66.97,3.23,1.45,4.71.48,1.48,1,2.68,1.56,3.61.79-.39,1.48-1.21,2.06-2.45.58-1.25,1.12-2.7,1.61-4.37.49-1.66.97-3.4,1.43-5.2.46-1.8.99-3.45,1.57-4.94.59-1.49,1.26-2.7,2.02-3.6.76-.91,1.69-1.29,2.79-1.14,1.31.18,2.39,1.11,3.24,2.79.85,1.69,1.54,3.78,2.06,6.28.52,2.5.89,5.24,1.09,8.23.2,2.99.33,5.86.37,8.61.04,2.75.02,5.22-.06,7.41-.09,2.19-.19,3.75-.32,4.67-.05.4-.13.83-.22,1.29-.09.46-.22.87-.39,1.23-.17.36-.39.62-.68.78-.29.16-.66.1-1.13-.18-.14-.06-.29-.21-.45-.43-.16-.22-.32-.5-.49-.84-.16-.34-.3-.66-.4-.96-.11-.31-.15-.57-.12-.79.03-2.2.06-4.64.1-7.33.04-2.69,0-5.43-.12-8.21-.11-2.78-.36-5.5-.75-8.15-.38-2.66-.99-4.98-1.81-6.98-.94.59-1.74,1.58-2.42,2.94-.67,1.37-1.28,2.88-1.83,4.54-.55,1.66-1.07,3.35-1.57,5.08-.5,1.73-1.06,3.28-1.69,4.66-.63,1.38-1.34,2.48-2.13,3.32-.79.84-1.76,1.18-2.89,1.03-.78-.11-1.5-.59-2.13-1.47-.64-.87-1.22-1.98-1.75-3.34-.53-1.35-1.02-2.83-1.47-4.44s-.89-3.2-1.31-4.76c-.43-1.56-.85-3.02-1.27-4.38s-.89-2.46-1.4-3.29c-.42,1.34-.76,2.52-1.03,3.53-.27,1.02-.51,2.01-.71,2.97-.2.96-.38,1.95-.53,2.96-.15,1.01-.31,2.14-.48,3.37-.25,1.85-.39,3.71-.44,5.57-.04,1.86-.07,3.71-.08,5.55-.01,1.84-.03,3.69-.06,5.55-.03,1.86-.17,3.72-.42,5.57l-.07.53c-.08.12-.22.32-.43.58s-.43.54-.66.82c-.23.28-.46.53-.7.75-.24.22-.4.36-.5.44-.04.04-.1.05-.18.04-.09.03-.18.04-.27.03-.06,0-.13-.04-.21-.09-.08-.06-.15-.09-.21-.1.14-2.59.25-5.04.33-7.37.08-2.33.17-4.63.28-6.9s.26-4.57.44-6.88c.18-2.31.45-4.79.8-7.44Z" style="fill:#1b459c; stroke-width:0px;"/><path d="m40.23,31.45c0-1.9.18-3.82.55-5.77.36-1.95.88-3.82,1.54-5.61.66-1.78,1.46-3.45,2.41-4.99.94-1.54,1.99-2.88,3.13-4.02,1.15-1.13,2.39-2.03,3.74-2.68,1.35-.65,2.76-.98,4.25-.98s2.77.4,3.86,1.2c1.09.8,2,1.87,2.73,3.21.73,1.34,1.27,2.87,1.62,4.6.35,1.73.53,3.49.53,5.27,0,3.12-.34,6.2-1.01,9.23-.67,3.03-1.67,5.75-2.99,8.14s-2.96,4.33-4.91,5.8c-1.96,1.47-4.2,2.2-6.73,2.2-1.51,0-2.81-.47-3.9-1.42s-2-2.18-2.71-3.68c-.71-1.51-1.24-3.18-1.58-5.02-.34-1.84-.51-3.67-.51-5.49Zm3.44,1.23c0,1,.12,2.06.36,3.18.24,1.12.58,2.14,1.01,3.07.43.93.98,1.71,1.64,2.34.66.63,1.41.95,2.25.95,1.81,0,3.45-.57,4.93-1.7,1.48-1.13,2.76-2.6,3.84-4.41,1.08-1.8,1.91-3.82,2.51-6.05.59-2.23.89-4.44.89-6.64,0-1.26-.03-2.57-.08-3.9-.05-1.34-.23-2.56-.53-3.65-.3-1.1-.76-1.99-1.39-2.68-.63-.69-1.54-1.03-2.73-1.03-.38,0-.88.02-1.52.06-.63.04-1.26.14-1.88.31-.62.17-1.17.42-1.64.75-.47.33-.71.8-.71,1.39,0,.08.05.23.14.47.09.24.2.49.3.75.11.26.2.51.28.75.08.24.12.4.12.47s-.11.27-.32.59c-.22.32-.39.51-.53.59-1.35.48-2.47,1.09-3.38,1.81-.9.73-1.62,1.67-2.14,2.82-.53,1.15-.9,2.53-1.11,4.13-.22,1.6-.32,3.48-.32,5.63Z" style="fill:#1b459c; stroke-width:0px;"/></svg>